<svg viewBox="0 0 100 100" xmlns="http://www.w3.org/2000/svg">
  <!-- Background (optional, can be transparent) -->
  <!-- <rect width="100" height="100" fill="#f5f5dc" /> -->

  <!-- Tree Trunk -->
  <path d="M 50 95 Q 45 70 40 60 Q 30 40 50 30 Q 70 40 60 60 Q 55 70 50 95 Z" fill="#8B4513"/>

  <!-- Main Branches from center top -->
  <path d="M 50 32 C 40 30 30 40 25 45" stroke="#8B4513" stroke-width="5" fill="none" stroke-linecap="round"/>
  <path d="M 50 32 C 60 30 70 40 75 45" stroke="#8B4513" stroke-width="5" fill="none" stroke-linecap="round"/>
  <path d="M 50 32 C 50 28 45 20 40 15" stroke="#8B4513" stroke-width="5" fill="none" stroke-linecap="round"/>
  <path d="M 50 32 C 50 28 55 20 60 15" stroke="#8B4513" stroke-width="5" fill="none" stroke-linecap="round"/>
  <path d="M 50 32 C 48 30 40 35 35 38" stroke="#8B4513" stroke-width="4" fill="none" stroke-linecap="round"/>
  <path d="M 50 32 C 52 30 60 35 65 38" stroke="#8B4513" stroke-width="4" fill="none" stroke-linecap="round"/>


  <!-- Spirals/decorative branches -->
  <path d="M 40 60 Q 30 50 35 45 T 45 42" stroke="#8B4513" stroke-width="4" fill="none"/>
  <path d="M 60 60 Q 70 50 65 45 T 55 42" stroke="#8B4513" stroke-width="4" fill="none"/>


  <!-- Leaves (simplified) -->
  <ellipse cx="45" cy="50" rx="3" ry="5" fill="#654321" transform="rotate(-30 45 50)"/>
  <ellipse cx="55" cy="50" rx="3" ry="5" fill="#654321" transform="rotate(30 55 50)"/>
  <ellipse cx="50" cy="45" rx="3" ry="5" fill="#654321"/>

  <!-- Top Center Flower -->
  <circle cx="50" cy="12" r="7" fill="#D35400"/>
  <circle cx="50" cy="12" r="3" fill="#FFD700"/>
  <!-- Petals (simplified) -->
  <circle cx="50" cy="5" r="3" fill="#D35400"/>
  <circle cx="50" cy="19" r="3" fill="#D35400"/>
  <circle cx="43" cy="12" r="3" fill="#D35400"/>
  <circle cx="57" cy="12" r="3" fill="#D35400"/>
  <circle cx="45" cy="8" r="3" fill="#D35400"/>
  <circle cx="55" cy="8" r="3" fill="#D35400"/>
  <circle cx="45" cy="16" r="3" fill="#D35400"/>
  <circle cx="55" cy="16" r="3" fill="#D35400"/>


  <!-- Left Flower -->
  <circle cx="20" cy="35" r="6" fill="#D35400"/>
  <circle cx="20" cy="35" r="2.5" fill="#FFD700"/>
   <!-- Petals -->
  <circle cx="20" cy="29" r="2.5" fill="#D35400"/>
  <circle cx="20" cy="41" r="2.5" fill="#D35400"/>
  <circle cx="14" cy="35" r="2.5" fill="#D35400"/>
  <circle cx="26" cy="35" r="2.5" fill="#D35400"/>

  <!-- Right Flower -->
  <circle cx="80" cy="35" r="6" fill="#D35400"/>
  <circle cx="80" cy="35" r="2.5" fill="#FFD700"/>
   <!-- Petals -->
  <circle cx="80" cy="29" r="2.5" fill="#D35400"/>
  <circle cx="80" cy="41" r="2.5" fill="#D35400"/>
  <circle cx="74" cy="35" r="2.5" fill="#D35400"/>
  <circle cx="86" cy="35" r="2.5" fill="#D35400"/>

  <!-- Bottom-left Orb -->
  <circle cx="28" cy="75" r="8" fill="#FFBF00"/>
  <!-- Bottom-right Orb -->
  <circle cx="72" cy="75" r="8" fill="#FFBF00"/>

  <!-- Top-left Orb -->
  <circle cx="30" cy="20" r="6" fill="#FFBF00"/>
  <!-- Top-right Orb -->
  <circle cx="70" cy="20" r="6" fill="#FFBF00"/>

</svg>
